# xmcd
#
# Track frame offsets:
#	150
#	23287
#	39357
#	52970
#	70092
#	91420
#	114560
#	139032
#	154410
#	172865
#	195285
#	217990
#
# Disc length: 3142 seconds
#
# Revision: 0
# Processed by: cddbd v1.4b42PL1 Copyright (c) Steve Scherf et al.
# Submitted via: EasyCDDAExtractor 4.5.0.2
#
DISCID=8e0c440c
DTITLE=Phyllis Hyman - One on one
DYEAR=1900
DGENRE=Blues
TTITLE0=Leavin' the good life behind (long version)
TTITLE1=Baby (I'm gonna love you)
TTITLE2=Do me
TTITLE3=Betcha by golly wow
TTITLE4=Love is here
TTITLE5=As you are
TTITLE6=I got it bad and that ain't good - Mood indigo
TTITLE7=Take the "A" train
TTITLE8=Maybe tomorrow
TTITLE9=The survivor
TTITLE10=Obsession
TTITLE11=Remember who you are
EXTD=
EXTT0=
EXTT1=
EXTT2=
EXTT3=
EXTT4=
EXTT5=
EXTT6=
EXTT7=
EXTT8=
EXTT9=
EXTT10=
EXTT11=
PLAYORDER=
